<svg width="74" height="67" viewBox="0 0 74 67" fill="none" xmlns="http://www.w3.org/2000/svg">
<path d="M25.5156 55.9297C26.7842 55.9297 27.8125 55.0168 27.8125 53.8906C27.8125 52.7645 26.7842 51.8515 25.5156 51.8515C24.2471 51.8515 23.2188 52.7645 23.2188 53.8906C23.2188 55.0168 24.2471 55.9297 25.5156 55.9297Z" stroke="black" stroke-width="4.36287" stroke-linecap="round" stroke-linejoin="round"/>
<path d="M57.6719 55.9297C58.9404 55.9297 59.9688 55.0168 59.9688 53.8906C59.9688 52.7645 58.9404 51.8515 57.6719 51.8515C56.4033 51.8515 55.375 52.7645 55.375 53.8906C55.375 55.0168 56.4033 55.9297 57.6719 55.9297Z" stroke="black" stroke-width="4.36287" stroke-linecap="round" stroke-linejoin="round"/>
<path d="M7.14062 11.0703H16.3281L23.2188 45.7344H59.9688" stroke="black" stroke-width="4.36287" stroke-linecap="round" stroke-linejoin="round"/>
<path d="M23.2188 37.5781H59.027C59.2926 37.5783 59.5501 37.4967 59.7556 37.3473C59.961 37.1979 60.1018 36.9899 60.1539 36.7587L64.2883 18.4071C64.3217 18.2591 64.3176 18.1064 64.2764 17.96C64.2352 17.8136 64.1579 17.6771 64.0501 17.5604C63.9423 17.4437 63.8067 17.3498 63.653 17.2853C63.4993 17.2208 63.3314 17.1874 63.1614 17.1875H18.625" stroke="black" stroke-width="4.36287" stroke-linecap="round" stroke-linejoin="round"/>
</svg>
