<svg width="74" height="74" viewBox="0 0 74 74" fill="none" xmlns="http://www.w3.org/2000/svg">
<path d="M37 9.4375C21.8022 9.4375 9.4375 21.8022 9.4375 37C9.4375 52.1978 21.8022 64.5625 37 64.5625C52.1978 64.5625 64.5625 52.1978 64.5625 37C64.5625 21.8022 52.1978 9.4375 37 9.4375ZM30.3452 24.9176C32.0242 23.1379 34.3869 22.1587 37 22.1587C39.6131 22.1587 41.9546 23.1445 43.6402 24.9335C45.3483 26.7462 46.1791 29.1818 45.983 31.8002C45.5908 37 41.5624 41.2404 37 41.2404C32.4376 41.2404 28.4013 37 28.017 31.7989C27.8222 29.1593 28.6517 26.7157 30.3452 24.9176ZM37 60.3221C33.8866 60.3242 30.8045 59.701 27.9364 58.4896C25.0683 57.2782 22.4727 55.5032 20.3035 53.2698C21.5459 51.4981 23.1288 49.9917 24.96 48.8386C28.3377 46.6734 32.6125 45.4808 37 45.4808C41.3875 45.4808 45.6623 46.6734 49.0361 48.8386C50.8687 49.9912 52.4531 51.4976 53.6965 53.2698C51.5275 55.5034 48.9319 57.2786 46.0638 58.49C43.1957 59.7015 40.1135 60.3245 37 60.3221Z" fill="black"/>
</svg>
